<svg xmlns="http://www.w3.org/2000/svg" width="378.451" height="100.666" viewBox="0 0 378.451 100.666"><g transform="translate(1998 -1542)"><g transform="translate(-1998 1542)"><path d="M168.166,117.833a50.333,50.333,0,1,0-58.2,49.721V132.382H97.188V117.833h12.78V106.744c0-12.615,7.514-19.583,19.012-19.583a77.384,77.384,0,0,1,11.267.983v12.387H133.9c-6.252,0-8.2,3.88-8.2,7.86v9.442h13.959l-2.232,14.549H125.7v35.172A50.345,50.345,0,0,0,168.166,117.833Z" transform="translate(-67.5 -67.5)" fill="#1877f2"/><path d="M215.383,184.01l2.232-14.549H203.655v-9.442c0-3.981,1.95-7.86,8.2-7.86H218.2V139.772a77.385,77.385,0,0,0-11.267-.983c-11.5,0-19.012,6.968-19.012,19.583v11.089h-12.78V184.01h12.78v35.172a50.863,50.863,0,0,0,15.729,0V184.01Z" transform="translate(-145.458 -119.128)" fill="#fff"/></g><path d="M424.2,303.5a12.485,12.485,0,0,0-5.515,1.485v16.977a34.935,34.935,0,0,0,3.972.154c5.4,0,6.138-2.472,6.138-5.917v-8.112c0-2.543-.844-4.586-4.6-4.586m-35.85-.927c-3.746,0-4.6,2.053-4.6,4.6V308.6h9.2v-1.427c0-2.543-.854-4.6-4.6-4.6M318.9,320.249c0,2.01.949,3.054,3.047,3.054a11.172,11.172,0,0,0,5.225-1.486v-4.024h-4.921c-2.329,0-3.351.431-3.351,2.456M459.072,303.5c-3.752,0-5.051,2.044-5.051,4.586v9.292c0,2.552,1.3,4.6,5.051,4.6s5.051-2.049,5.051-4.6v-9.292c0-2.543-1.311-4.586-5.051-4.586m-158.558,27.16H289.486V304.007h-5.511V294.82h5.511V289.3c0-7.494,3.112-11.951,11.95-11.951H308.8v9.188h-4.6c-3.442,0-3.671,1.284-3.671,3.679l-.013,4.6h8.335l-.976,9.188h-7.359Zm37.69.069h-9.191l-.4-2.321a21.1,21.1,0,0,1-10.413,2.7c-6.742,0-10.331-4.5-10.331-10.717,0-7.336,4.187-9.954,11.677-9.954h7.623v-1.586c0-3.747-.43-4.845-6.2-4.845h-9.43l.923-9.187h10.306c12.655,0,15.43,3.993,15.43,14.106Zm31.254-26.051c-5.72-.979-7.361-1.2-10.113-1.2-4.944,0-6.436,1.091-6.436,5.281V316.7c0,4.193,1.493,5.285,6.436,5.285,2.752,0,4.394-.217,10.113-1.2v8.958a48.738,48.738,0,0,1-11.032,1.418c-11.841,0-16.545-6.218-16.545-15.2v-6.435c0-8.99,4.7-15.219,16.545-15.219a48.72,48.72,0,0,1,11.032,1.422Zm34.512,11.276H383.748v.741c0,4.193,1.495,5.285,6.436,5.285a64.4,64.4,0,0,0,12.864-1.2v8.958a57.95,57.95,0,0,1-13.777,1.418c-11.841,0-16.55-6.218-16.55-15.2V308.6c0-7.858,3.5-14.3,15.627-14.3s15.623,6.363,15.623,14.3Zm35.85.169c0,8.684-2.485,15.016-17.538,15.016a83.3,83.3,0,0,1-14.624-1.4V280.112l11.024-1.835v17.358a25.038,25.038,0,0,1,8.274-1.333c11.028,0,12.864,4.938,12.864,12.869Zm35.341.191c0,7.49-3.1,14.754-16.052,14.754s-16.116-7.265-16.116-14.754v-7.231c0-7.492,3.154-14.758,16.116-14.758s16.052,7.266,16.052,14.758Zm35.313,0c0,7.49-3.1,14.754-16.05,14.754s-16.118-7.265-16.118-14.754v-7.231c0-7.492,3.155-14.758,16.118-14.758s16.05,7.266,16.05,14.758Zm36.245,14.347H534.765L524.66,313.816v16.847H513.633V280.112l11.027-1.835v32.542l10.106-16h11.953l-11.035,17.459ZM494.385,303.5c-3.745,0-5.045,2.044-5.045,4.586v9.292c0,2.552,1.3,4.6,5.045,4.6s5.063-2.049,5.063-4.6v-9.292c0-2.543-1.323-4.586-5.063-4.586" transform="translate(-2166.267 1288.366)" fill="#1877f2"/></g></svg>