<svg xmlns="http://www.w3.org/2000/svg" width="380.925" height="85.04" viewBox="0 0 380.925 85.04"><g transform="translate(-84.55 -85.035)"><path d="M203.5,98.314a15.216,15.216,0,0,0-10.741-10.74c-9.474-2.539-47.463-2.539-47.463-2.539s-37.989,0-47.463,2.539a15.216,15.216,0,0,0-10.741,10.74c-2.538,9.474-2.538,29.241-2.538,29.241s0,19.767,2.538,29.241a15.214,15.214,0,0,0,10.741,10.74c9.474,2.539,47.463,2.539,47.463,2.539s37.989,0,47.463-2.539A15.214,15.214,0,0,0,203.5,156.8c2.538-9.474,2.538-29.241,2.538-29.241S206.034,107.788,203.5,98.314Z" fill="#e71618"/><path d="M133.144,145.778,164.7,127.556l-31.561-18.223Z" fill="#fff"/><path d="M260.885,162.4a13.226,13.226,0,0,1-5.125-7.558,49.428,49.428,0,0,1-1.521-13.64v-7.732a44.822,44.822,0,0,1,1.737-13.813,13.858,13.858,0,0,1,5.43-7.6,17.586,17.586,0,0,1,9.687-2.389q5.907,0,9.47,2.433a13.945,13.945,0,0,1,5.212,7.6,46.622,46.622,0,0,1,1.651,13.77v7.732a47.42,47.42,0,0,1-1.607,13.683,13.441,13.441,0,0,1-5.213,7.559q-3.606,2.388-9.774,2.389Q264.49,164.836,260.885,162.4Zm13.466-8.34q1-2.605,1-8.514V128.956a25.68,25.68,0,0,0-1-8.384,3.576,3.576,0,0,0-3.519-2.65,3.524,3.524,0,0,0-3.431,2.65,25.624,25.624,0,0,0-1,8.384v16.593q0,5.909.955,8.514a3.5,3.5,0,0,0,3.475,2.606A3.569,3.569,0,0,0,274.351,154.063Z" fill="#313133"/><path d="M445.406,141.332v2.693a70.789,70.789,0,0,0,.3,7.689,7.289,7.289,0,0,0,1.26,3.736,3.584,3.584,0,0,0,2.953,1.173,3.718,3.718,0,0,0,3.692-2.086q1-2.084,1.086-6.95l10.339.608a16.294,16.294,0,0,1,.087,1.912q0,7.385-4.04,11.033t-11.424,3.649q-8.862,0-12.424-5.56t-3.562-17.2v-9.3q0-11.99,3.693-17.506t12.64-5.517q6.168,0,9.47,2.259A12.129,12.129,0,0,1,464.128,119a50.9,50.9,0,0,1,1.347,13.206v9.122Zm1.52-22.414a7.327,7.327,0,0,0-1.216,3.692,71.906,71.906,0,0,0-.3,7.775v3.823h8.774v-3.823a64.764,64.764,0,0,0-.347-7.775,7.443,7.443,0,0,0-1.26-3.736,3.482,3.482,0,0,0-2.823-1.086A3.417,3.417,0,0,0,446.926,118.918Z" fill="#313133"/><path d="M231.691,140.335l-13.639-49.26h11.9l4.778,22.328q1.824,8.254,2.693,14.074h.347q.607-4.17,2.694-13.987l4.951-22.415h11.9l-13.814,49.26v23.632H231.691Z" fill="#313133"/><path d="M326.136,110.711v53.255h-9.383l-1.043-6.515h-.26q-3.825,7.384-11.468,7.384-5.3,0-7.819-3.475T293.644,150.5v-39.79h11.989v39.1a11.936,11.936,0,0,0,.781,5.082,2.7,2.7,0,0,0,2.607,1.52,5.316,5.316,0,0,0,3-.956,5.916,5.916,0,0,0,2.129-2.432V110.711Z" fill="#313133"/><path d="M387.632,110.711v53.255h-9.383l-1.043-6.515h-.26q-3.825,7.384-11.468,7.384-5.3,0-7.819-3.475T355.14,150.5v-39.79h11.989v39.1a11.936,11.936,0,0,0,.781,5.082,2.7,2.7,0,0,0,2.607,1.52,5.319,5.319,0,0,0,3-.956,5.916,5.916,0,0,0,2.129-2.432V110.711Z" fill="#313133"/><path d="M358.714,100.72h-11.9v63.246H335.084V100.72h-11.9V91.077h35.532Z" fill="#313133"/><path d="M427.311,119.224q-1.088-5.037-3.519-7.3a9.453,9.453,0,0,0-6.689-2.259,11.1,11.1,0,0,0-6.169,1.868,12.693,12.693,0,0,0-4.43,4.909h-.088V88.383H394.862v75.583h9.9l1.216-5.039h.261a10.169,10.169,0,0,0,4.17,4.257,12.357,12.357,0,0,0,6.169,1.564,9.441,9.441,0,0,0,8.948-5.6q2.867-5.6,2.867-17.5v-8.427A70,70,0,0,0,427.311,119.224Zm-10.99,21.723a67.382,67.382,0,0,1-.478,9.122,9.856,9.856,0,0,1-1.607,4.691,3.714,3.714,0,0,1-3.041,1.39,5.547,5.547,0,0,1-2.736-.695,5.231,5.231,0,0,1-2.042-2.085V123.137a7.561,7.561,0,0,1,2.085-3.562,4.614,4.614,0,0,1,3.214-1.39,3.243,3.243,0,0,1,2.824,1.434,11.021,11.021,0,0,1,1.39,4.822,90.093,90.093,0,0,1,.391,9.642Z" fill="#313133"/></g></svg>